<svg width="20" height="20" viewBox="0 0 20 20" fill="none" xmlns="http://www.w3.org/2000/svg">
    <path
        d="M16.7358 12.6667L17.7375 13.2675C17.7993 13.3045 17.8505 13.3569 17.886 13.4195C17.9215 13.4822 17.9402 13.553 17.9402 13.625C17.9402 13.697 17.9215 13.7678 17.886 13.8305C17.8505 13.8931 17.7993 13.9455 17.7375 13.9825L10.4292 18.3675C10.2996 18.4454 10.1512 18.4865 10 18.4865C9.8488 18.4865 9.70045 18.4454 9.57084 18.3675L2.26251 13.9825C2.20071 13.9455 2.14956 13.8931 2.11404 13.8305C2.07853 13.7678 2.05986 13.697 2.05986 13.625C2.05986 13.553 2.07853 13.4822 2.11404 13.4195C2.14956 13.3569 2.20071 13.3045 2.26251 13.2675L3.26417 12.6667L10 16.7083L16.7358 12.6667ZM16.7358 8.75001L17.7375 9.35084C17.7993 9.38783 17.8505 9.44021 17.886 9.50287C17.9215 9.56553 17.9402 9.63632 17.9402 9.70834C17.9402 9.78036 17.9215 9.85115 17.886 9.91381C17.8505 9.97647 17.7993 10.0288 17.7375 10.0658L10 14.7083L2.26251 10.0658C2.20071 10.0288 2.14956 9.97647 2.11404 9.91381C2.07853 9.85115 2.05986 9.78036 2.05986 9.70834C2.05986 9.63632 2.07853 9.56553 2.11404 9.50287C2.14956 9.44021 2.20071 9.38783 2.26251 9.35084L3.26417 8.75001L10 12.7917L16.7358 8.75001ZM10.4283 1.09084L17.7375 5.47584C17.7993 5.51283 17.8505 5.56521 17.886 5.62787C17.9215 5.69053 17.9402 5.76132 17.9402 5.83334C17.9402 5.90536 17.9215 5.97615 17.886 6.03881C17.8505 6.10147 17.7993 6.15385 17.7375 6.19084L10 10.8333L2.26251 6.19084C2.20071 6.15385 2.14956 6.10147 2.11404 6.03881C2.07853 5.97615 2.05986 5.90536 2.05986 5.83334C2.05986 5.76132 2.07853 5.69053 2.11404 5.62787C2.14956 5.56521 2.20071 5.51283 2.26251 5.47584L9.57084 1.09084C9.70045 1.01297 9.8488 0.971832 10 0.971832C10.1512 0.971832 10.2996 1.01297 10.4292 1.09084H10.4283ZM10 2.77667L4.90584 5.83334L10 8.89001L15.0942 5.83334L10 2.77667Z"
        fill="#B99303" />
</svg>
